<svg height="240" viewBox="0 0 240 240" width="240" xmlns="http://www.w3.org/2000/svg">
    <path d="m0 0h240v240h-240z" fill="#fff"/>
    <path d="m192.68 60.7782s27.316-42.5284-3.712-52.61339c-28.505-9.27632-34.644 29.63669-32.17 41.90989.762 3.8057 35.882 10.7035 35.882 10.7035z"
          fill="#eec0bb"/>
    <path d="m183.876 21.9598c3.76 1.0941 8.376 4.662 6.472 11.2743-1.808 6.2318-9.232 10.6559-12.516 9.7045-2.998-.8563-7.233-8.6104-5.425-14.8421 1.904-6.6124 7.757-7.1832 11.469-6.1367z"
          fill="#008363"/>
    <path d="m181.401 35.5179c-.095-.0952-.238-.1427-.333-.2379.047-.1427.095-.2378.143-.3806.666-1.5698 1.76-2.8066 3.283-3.3775 1.666-.6184 3.474-.333 5.092.6184-.618 1.7602-1.808 3.1873-3.474 3.8057-1.523.5709-3.188.3806-4.711-.4281z"
          fill="#1c398e"/>
    <path d="m181.164 34.947c.666-1.5698 1.76-2.8066 3.283-3.3775 1.19-.4281 2.427-.4281 3.617-.0476-1.047-.2378-2.142-.2378-3.188.1427-1.523.5709-2.665 1.8077-3.284 3.3776-.048.1427-.095.2378-.143.3805.095.0476.238.1427.333.2379.333.1903.714.333 1.047.4281-.523-.1427-.999-.333-1.523-.5708-.095-.0952-.238-.1427-.333-.2379.143-.0951.191-.1903.191-.333z"
          fill="#1c398e"/>
    <path d="m185.019 35.4714c1.665-.6184 2.855-1.998 3.474-3.8057-.048 0-.048-.0475-.096-.0475.381.1427.809.333 1.19.5708-.618 1.7601-1.808 3.1873-3.474 3.8057-1.523.5708-3.188.3805-4.711-.4282-.048-.0475-.143-.0951-.19-.1427 1.237.4282 2.569.4757 3.807.0476z"
          fill="#1c398e" opacity=".25"/>
    <path d="m178.641 34.7577h.428c.048-.1427.048-.2854.096-.3806.285-1.7125 0-3.3299-1-4.6143-1.094-1.3796-2.76-2.0932-4.663-2.1407-.429 1.8552-.143 3.6629.904 5.0425.999 1.2368 2.522 1.9504 4.235 2.0931z"
          fill="#1c398e"/>
    <path d="m179.117 34.3304c.286-1.7125 0-3.33-.999-4.6144-.762-.999-1.856-1.6174-3.046-1.9504 1.047.333 1.951.9514 2.617 1.8077 1 1.2844 1.285 2.9494 1 4.6144-.048.1427-.095.2378-.095.3806-.143 0-.286 0-.429 0-.381-.0476-.761-.0952-1.142-.1903.524.1427 1.047.2854 1.571.333h.428c.047-.0952.095-.2379.095-.3806z"
          fill="#1c398e"/>
    <path d="m175.595 32.7594c-1.094-1.3795-1.332-3.1872-.904-5.0425h.095c-.428-.0951-.856-.1427-1.285-.1427-.428 1.8553-.142 3.663.905 5.0425.999 1.2844 2.522 1.998 4.235 2.1407h.238c-1.333-.2854-2.475-.9514-3.284-1.998z"
          fill="#1c398e" opacity=".25"/>
    <path d="m180.082 37.1781c-.151-.0435-.239-.2016-.195-.3531.043-.1515.201-.2391.353-.1957.152.0435.239.2016.196.3531-.044.1515-.202.2391-.354.1957z"
          fill="#1c398e"/>
    <path d="m178.761 36.6546c-.152-.0435-.239-.2015-.196-.3531.044-.1515.202-.2391.353-.1956.152.0434.24.2015.196.353-.043.1515-.201.2391-.353.1957z"
          fill="#1c398e"/>
    <path d="m181.354 52.9759c.238-.8087.667-1.5223.904-2.331.238-.8087.334-1.7125-.142-2.4261-.381-.6184-1.095-.9514-1.809-1.1417-.713-.2378-2.95-.3806-2.522-1.998.143-.6184.428-1.7125.524-2.3309-.524-.1427-1-.2855-1.523-.4757-.143.6184-1 2.2358-1.475 2.6639-.619.666-3.617-.3805-4.474-.2378-.381.0475-.761.1903-1.094.4281-.762.5709-.857 1.665-1 2.6164-.095.5233-.238 1.0941-.095 1.6174.286 1.0941 1.571 1.5699 2.665 1.8077 2.713.666 5.473 1.2844 8.233 1.7601"
          fill="#008363"/>
    <path d="m209.669 74.2876s3.807-13.748-32.265-25.2126c-36.072-11.5121-39.689-2.2358-40.641.2854-.999 2.5213 72.906 24.9272 72.906 24.9272z"
          fill="#1c398e"/>
    <path d="m209.669 74.2878s2.475-13.2723-34.692-23.5476c-35.787-9.8947-37.452-3.2348-38.214-1.3796z" fill="#008363"/>
    <path d="m166.983 72.2432c26.935 8.9433 37.881 10.1326 42.164 3.4727 4.283-6.6124-17.989-19.1711-35.977-23.9282-17.989-4.757-33.36-8.4676-36.453-2.4261-3.046 6.0415-2.094 12.1306 30.266 22.8816z"
          fill="#1c398e"/>
    <path d="m184.352 74.3347s3.189 1.1893 5.425-2.664c2.237-3.8532-4.806-8.9433-17.322-12.7965-12.516-3.8533-20.273-3.4251-21.462-1.2844-1.142 2.1407-.048 5.4706 7.614 9.5617 6.9 3.7105 20.844 6.7075 25.745 7.1832z"
          fill="#f2b500"/>
    <path d="m169.696 69.8158c15.276 3.9484 16.561 4.662 18.083 1.4271 1.523-3.2348-4.949-6.6123-14.99-10.418-10.041-3.8056-19.131-3.5678-20.749-1.5222-1.57 2.0455 5.949 7.4686 17.656 10.5131z"
          fill="#fff"/>
    <path d="m18.75 219.759h168.791s-1.38-149.3249-2.332-150.7045c-.904-1.332-19.702-12.1305-30.457-8.5152z"
          fill="#f2b500"/>
    <path d="m203.245 72.4809c-.619-1.5698-2.998-2.3785-4.473-2.8542-.191-.0476-.429-.1428-.667-.0952-.475.0476-.809.5709-.856 1.0466-.048.6184.19 1.2844.523 1.8077.809 1.2368 2.38 1.9979 3.855 1.9028.571-.0476 1.523-.2854 1.666-.9514.095-.2854.047-.5709-.048-.8563z"
          fill="#f2b500"/>
    <path d="m191.491 63.2517c-.048-.5233-.381-1.0942-.714-1.3796-.952-.8563-2.046-1.5223-3.236-1.9028-.238-.0952-.476-.1427-.714-.0952-2.189.2855-.238 2.997.714 3.5678.714.4282 1.523.666 2.332.8088.381.0475.761.0951 1.095-.0476.428-.1903.571-.5709.523-.9514z"
          fill="#f2b500"/>
    <path d="m192.204 74.6212c.952.2855 2.523 1.0466 1.618 1.665-.19.1427-.38.1427-.618.1903-.619.0476-3.855-.7611-2.38-1.8077.238-.1427.524-.1903.809-.1903.095 0 .333.0476.571.1427z"
          fill="#f2b500"/>
    <path d="m173.739 54.8784c.381.1427.714.2854 1.095.4757 1.19.666 1.475 1.8077-.19 1.998-1.38.1427-2.903-.1903-4.141-.6184-.333-.1427-.666-.2855-.951-.5233-.952-.9514.142-1.5223 1.047-1.665 1.046-.1427 2.141-.0476 3.14.333z"
          fill="#f2b500"/>
    <path d="m156.703 51.6912c1.047.4282 2.142 1.3796.572 2.1407-1.19.5709-2.57.3806-3.855.0476-.857-.2379-2.522-1.1417-1.428-1.998 1.142-.9038 2.951-.7136 4.236-.3806.142.0952.285.1428.475.1903z"
          fill="#f2b500"/>
    <path d="m144.948 53.7366c-.142-.0952-.333-.2379-.571-.2855-.618-.1902-1.284-.2854-1.903-.2378-1.095.0476-2.332.8087-1.095 1.665.667.4757 1.951.9038 2.76.7611 1.19-.1903 1.571-1.2844.809-1.9028z"
          fill="#f2b500"/>
    <path d="m143.902 59.0654c.238-.1427.476-.1427.714-.1903.476-.0476.952 0 1.428.0952.713.0951 1.38.4757 1.237 1.2844-.048.1427-.095.2854-.238.3805-.571.3806-1.333.2855-1.951.1903-.286-.0476-.524-.0951-.762-.2378-.428-.2379-1.189-.9039-.571-1.4272.048-.0475.095-.0951.143-.0951z"
          fill="#f2b500"/>
    <path d="m179.831 39.3231h.096c.38-.0951 1.047-.6184.713-1.0941-.38-.5233-1.284-.0476-1.808-.2379-.19-.0951-.381-.1903-.523-.333-.191-.1427-.381-.2378-.571-.2378-.286-.0476-.571.2378-.619.5232-.048.2855.19.4758.381.666.476.333.999.5709 1.57.7136.238.0476.476.0476.761 0z"
          fill="#1c398e"/>
    <ellipse cx="103.125" cy="219.75" fill="#da3404" rx="84.375" ry="9.75"/>
    <path d="m65.5593 43.4334h-59.35567s-1.66985-1.8956 4.55417-3.3173c6.224-1.4217 8.6528 3.9491 14.4214-9.004 2.4289-5.5287 8.5011-8.0561 14.1178-6.7924 5.6168 1.2637 8.0457 11.6893 11.8408 10.1097 3.7951-1.4217 1.6699-9.4779 10.3227-10.2677 8.6529-.6318 7.2867 9.4779 10.3228 12.3212 2.8843 2.8434 3.9469-3.9491 6.983-2.5274s2.277 5.6867 5.3131 5.6867 8.9565 1.1058 11.0818 2.6854c1.9735 1.5797-29.6019 1.1058-29.6019 1.1058z"
          fill="#008363"/>
    <path d="m80.25 81.6134h36.288s-5.002-6.6504-10.004-3.3252c0 0-2.452-8.6852-9.3169-8.5363-6.8653.1489-8.2874 8.5363-8.2874 8.5363s-5.4432-3.3748-8.6797 3.3252z"
          fill="#1c398e"/>
    <path d="m231 120h-52.5c1.563-3.507 5.328-5.771 9.093-5.114-.71-3.141.498-6.794 2.7-9.132s5.541-3.434 8.667-2.849c3.126.584 5.826 2.922 7.033 5.917 2.274-2.41 6.11-3.506 9.094-2.118 2.983 1.388 4.973 4.821 4.759 8.182 3.553-.657 9.236 1.973 11.154 5.114z"
          fill="#da3404"/>
    <path d="m99.4953 182.522c1.0437-.621 4.5827 2.399 4.5827 2.399-1.878 1.047-3.838 1.979-5.6629 2.856-.0208-.029.0364-4.634 1.0802-5.255z"
          fill="#1c398e"/>
    <path d="m104.078 179.083c1.968-1.288 5.644 1.984 5.827 2.116-1.719 1.328-3.728 2.557-5.829 3.721 0 0-2.023-4.508.002-5.837z"
          fill="#1c398e"/>
    <path d="m109.277 174.852c1.476-.933 4.977 1.061 5.21 1.201-.204-.161-3.251-2.439-2.957-4.099.287-1.611 2.501-2.374 2.687-2.42-.257.009-3.525.041-4.146-1.793-.662-1.892 1.855-3.269 1.855-3.269s-3.345.351-4.295-1.817c-.941-2.217.87-4.269.87-4.269 1.284 2.145 2.407 4.188 3.425 6.086.948 1.862 1.77 3.55 2.319 5.041.407 1.111.709 2.078.85 2.942.183 1.227-.01 2.42-.559 3.606-.86 1.849-2.515 3.569-4.609 5.168-.138-.252-2.106-5.414-.65-6.377z"
          fill="#1c398e"/>
    <path d="m104.126 157.064c-.916-2.06.881-4.497.881-4.497 1.238 1.96 2.426 3.911 3.523 5.797-.029.021-3.517.781-4.404-1.3z"
          fill="#1c398e"/>
    <path d="m101.015 151.718c-1.2121-1.803-.353-4.748-.067-5.569 1.334 2.154 2.717 4.315 4.051 6.469-.02-.029-2.563 1.191-3.984-.9z"
          fill="#1c398e"/>
    <path d="m97.0491 139.833c1.1881 1.951 2.4387 3.989 3.7599 6.064-.8816-.066-4.0727-.353-4.7597-1.306-.7784-1.018.9179-4.567.9998-4.758z"
          fill="#1c398e"/>
    <path d="m92.5497 137.55c-1.1418-1.766.4883-4.433.5621-4.574 1.0935 2.063 2.453 4.374 3.9165 6.828-.1779-.003-3.3368-.489-4.4786-2.254z"
          fill="#1c398e"/>
    <path d="m132.522 139.072 5.177 3.552c.623.426 1.475.268 1.901-.355l8.91-12.977c.426-.623.269-1.475-.355-1.901l-5.177-3.552c-.623-.426-1.474-.268-1.901.355l-8.91 12.977c-.424.619-.266 1.471.355 1.901z"
          fill="#1c398e"/>
    <path d="m142.363 129.824c-.9-.416-5.59 2.279-5.7 3.334-.049.466 4.818 3.729 5.402 3.414 1.056-.566.975-6.437.298-6.748z"
          fill="#f2b500"/>
    <path d="m139.401 134.485c.198.134.467.082.601-.116s.083-.467-.115-.602c-.198-.134-.468-.082-.602.116s-.082.467.116.602z"
          fill="#da3404"/>
    <path d="m140.96 131.033c.095-.087.873.514.877.594.005.108-1.321 1.911-1.424 1.954-.103.042-.611-.328-.57-.387s1.017-2.067 1.117-2.161z"
          fill="#da3404"/>
    <path d="m126.995 145.715s7.447 1.283 11.861-.124c5.459-1.741 5.299-8.106 4.31-8.692-.759-.443-1.215 2.475-1.215 2.475s-.096-3.076-1.138-3.095c-.216.003-.61 3.219-.61 3.219s-.531-3.289-1.16-2.955c-.628.335.286 5.556-.486 6.12-1.673 1.252-9.974.49-9.974.49"
          fill="#008363"/>
    <g fill="#fff">
        <path d="m125.216 109.951s4.114.399 4.67-.368c.556-.768-1.412-4.057-1.494-4.203-.821 1.166-1.905 2.786-3.176 4.571z"/>
        <path d="m121.454 114.934c.215.028 3.791.357 4.318-.658.5-.992-.473-4.124-.556-4.325-1.139 1.559-2.41 3.29-3.762 4.983z"/>
        <path d="m121.455 114.934c-1.193 1.497-2.494 2.98-3.822 4.378l.027.031s2.602 2.18 3.69.94c1.062-1.216.134-5.102.105-5.349z"/>
        <path d="m112.79 123.72s2.889 1.378 3.9.48.97-4.858.97-4.858l-.028-.03c-1.594 1.688-3.243 3.208-4.842 4.408z"/>
        <path d="m122.988 122.301s-3.589-.608-4.126.031c-.536.639.987 3.652 1.05 3.785.793-.973 1.848-2.328 3.076-3.816z"/>
        <path d="m126.605 118.16c-.187-.038-3.307-.551-3.834.307-.501.84.157 3.653.217 3.834 1.098-1.298 2.323-2.738 3.617-4.141z"/>
        <path d="m118.683 125.196c-.188-.038-3.308-.551-3.834.307-.502.84.156 3.653.216 3.834 1.098-1.298 2.324-2.738 3.618-4.141z"/>
        <path d="m126.604 118.161c1.142-1.24 2.378-2.461 3.632-3.606l-.022-.029s-2.148-2.078-3.182-1.057c-1.009 1.002-.438 4.473-.428 4.692z"/>
        <path d="m134.766 110.985s-2.451-1.391-3.395-.666c-.945.725-1.157 4.206-1.157 4.206l.022.029c1.506-1.384 3.05-2.615 4.53-3.569z"/>
    </g>
    <path d="m113.765 176.032c-.86 1.849-2.515 3.569-4.609 5.168-1.72 1.327-3.729 2.557-5.829 3.721-1.878 1.047-3.8384 1.979-5.6629 2.856-5.4865 2.554-10.1614 4.346-10.1619 5.136.0213 1.916 12.7388 3.669 19.3668 3.671 6.094-.008 15.831-2.994 24.589-7.644 24.615-18.984-16.674-47.388-16.674-47.388 2.657-2.4 4.837-4.367 4.837-4.367s14.481-13.078 17.009-19.246c1.094-2.635.706-4.773-2.163-7.952-.294-.326-15.127 17.125-24.909 20.866-.348-.351 19.987-25.289 19.618-25.628-3.653-3.347-6.307-4.603-9.499-5.072-6.708-1.0854-29.4076 21.344-29.9148 25.264-.1917 1.499.855 4.167 2.6498 7.567 1.0935 2.064 2.4529 4.374 3.9165 6.829 1.1881 1.951 2.4388 3.989 3.7595 6.064.149.024.228.012.228.012s-.037.07-.061.219c1.334 2.154 2.717 4.315 4.051 6.468 1.238 1.96 2.426 3.911 3.523 5.797 1.284 2.145 2.407 4.188 3.425 6.086.948 1.862 1.771 3.55 2.319 5.041.407 1.111.709 2.078.85 2.942.105 1.24-.117 2.454-.658 3.59z"
          fill="#008363"/>
    <path d="m132.647 188.216c.949-.509 1.857-1.076 2.764-1.643 2.665-1.659 5.176-3.47 7.348-5.388.832-.732 1.615-1.472 2.327-2.249 2.919-3.071 4.98-6.357 5.606-9.748 3.251-17.089-31.182-32.096-31.182-32.096s-2.18 1.967-4.837 4.366c0 0 41.289 28.405 16.674 47.388.487-.176.904-.389 1.3-.63z"
          fill="#eec0bb"/>
    <path d="m142.778 181.214c5.915 5.036 6.138 6.806 6.878 7.588.3.355 5.525-4.994 5.525-4.994-1.394-.837-4.167 1.645-4.167 1.645l-5.818-6.422-.062-.087c-.741.798-1.524 1.538-2.356 2.27z"
          fill="#008363"/>
    <path d="m123.662 107.44c-.748.057-1.445-3.039-.171-3.036 1.254-.027.92 2.978.171 3.036z" fill="#da3404"/>
    <path d="m124.794 154.026s4.697-5.474 9.123-5.191c4.426.282 4.826 8.396 3.805 8.925-.783.398-1.071-2.542-1.071-2.542s-.272 3.066-1.313 3.025c-.216-.014-.425-3.248-.425-3.248s-.719 3.253-1.327 2.883c-.608-.369.603-5.53-.136-6.137-1.597-1.346-6.564 2.831-6.564 2.831"
          fill="#008363"/>
    <path d="m124.815 120.539s.057-.041.123-.133c.058-.041.087-.062.087-.062-.116.083-.21.195-.21.195-.116.083-.297.258-.384.321 0 0-.094.112-.21.195-.029.021 0 0 .087-.063.086-.062.123-.132.123-.132z"
          fill="#ff3f59"/>
    <path d="m134.323 110.03s-1.486 1.533-3.712 3.809c-.556.569-1.17 1.179-1.814 1.81-.643.631-1.324 1.332-2.055 2.024-.73.693-1.44 1.414-2.2 2.127s-1.548 1.447-2.308 2.16c-1.569 1.418-3.208 2.798-4.763 3.988-.793.606-1.576 1.161-2.302 1.676-.747.486-1.464.951-2.164 1.316-.701.366-1.343.691-1.94.895-.576.234-1.106.348-1.577.421-.207.016-.414.032-.572.056-.157.024-.306-.001-.434.003-.228-.014-.356-.01-.356-.01l-.049-.008c-.129.003-.274.106-.27.234.004.129.086.245.235.27 0 0 .149.026.397.068.128-.004.297.05.475.055s.414-.031.642-.018c.492-.044 1.072-.15 1.718-.346s1.358-.483 2.079-.82c.75-.357 1.488-.793 2.284-1.27.776-.507 1.609-1.054 2.422-1.63.813-.577 1.643-1.252 2.444-1.907.829-.676 1.639-1.38 2.448-2.085s1.598-1.438 2.357-2.151c.76-.713 1.499-1.455 2.209-2.177s1.391-1.422 2.014-2.082c.602-.689 1.196-1.328 1.732-1.926 1.071-1.196 1.911-2.228 2.542-2.937.582-.718.935-1.143.935-1.143.095-.111.071-.268-.04-.364-.153-.153-.281-.15-.377-.038z"
          fill="#da3404"/>
    <ellipse cx="94.5809" cy="119.096" fill="#008363" rx="3.20304" ry="4.27073"
             transform="matrix(.78746673 .61635716 -.61635716 .78746673 93.50726 -32.983753)"/>
    <path d="m95.3695 123.046c-.4465-.504-1.2203-1.821-.7432-3.061.4772-1.24 2.2624-1.81 3.0953-1.94" stroke="#1c398e"
          stroke-width="2"/>
    <path d="m129.712 197.389c-.039.537 8.586.472 8.586.472-.468-1.825-4.764-2.097-4.764-2.097 1.311-4.553 1.382-6.945.532-9.945-1.247.006-2.464-.063-3.716-.129 2.64 5.897-.57 10.483-.638 11.699z"
          fill="#008363"/>
</svg>